<svg version="1.1" id="Layer_1" xmlns="http://www.w3.org/2000/svg" xmlns:xlink="http://www.w3.org/1999/xlink" x="0px" y="0px"
	 width="100%" viewBox="0 0 1024 1024" enable-background="new 0 0 1024 1024" xml:space="preserve">
<path fill="#000000" opacity="1.000000" stroke="none" 
	d="
M407.012878,555.063599 
	C404.166351,568.288391 401.480621,581.147339 398.647491,593.973755 
	C398.044098,596.705566 398.332062,598.898132 400.643402,600.624451 
	C400.776306,600.723694 400.911285,600.831238 401.012115,600.960754 
	C407.593018,609.415100 415.040314,611.546265 425.504364,606.994690 
	C436.255768,602.318115 447.913086,599.724121 459.329681,596.170288 
	C459.196167,594.936157 459.298767,594.066040 458.996307,593.372681 
	C456.262329,587.105469 458.345795,582.209656 462.878265,577.617432 
	C489.681610,550.460693 516.401978,523.222046 543.134155,495.995178 
	C552.122314,486.840637 561.141846,477.714355 569.976074,468.412781 
	C572.496094,465.759460 574.391479,465.430450 576.890686,468.236847 
	C581.198853,473.074463 585.654663,477.780579 590.542236,483.076996 
	C590.504028,484.188477 588.753479,485.164795 587.529602,486.418701 
	C557.269104,517.422424 526.973389,548.391785 496.700989,579.383850 
	C490.647156,585.581604 484.576141,591.766724 478.683350,598.115662 
	C475.871765,601.144897 472.665527,603.148743 468.709839,604.357422 
	C440.693787,612.917664 412.712799,621.592651 384.715790,630.215332 
	C383.633514,630.548706 382.501831,630.721802 381.527679,630.939514 
	C380.028168,629.395630 380.644470,627.867615 380.945343,626.483276 
	C386.878845,599.185608 392.869049,571.900330 398.802063,544.602539 
	C399.565338,541.090637 401.152771,538.298767 403.748535,535.667236 
	C441.777222,497.115143 479.735046,458.492676 517.556213,419.737152 
	C520.921753,416.288513 523.082031,415.950012 526.295105,419.598358 
	C529.368652,423.088257 532.835449,426.260223 536.336426,429.336304 
	C539.229675,431.878479 539.245789,433.702148 536.414124,436.552917 
	C516.803772,456.295837 497.368134,476.212341 477.883270,496.079865 
	C461.898987,512.377991 445.784363,528.551880 430.015625,545.056030 
	C423.925446,551.430237 417.787415,555.519653 409.451172,550.520691 
	C407.370789,551.640564 407.441559,553.255127 407.012878,555.063599 
z"/>
<path fill="#000000" opacity="1.000000" stroke="none" 
	d="
M655.641846,535.640503 
	C665.751038,521.638062 668.118896,506.350677 664.503662,490.186371 
	C660.848633,473.844208 650.367371,462.325684 636.010925,453.760345 
	C639.659302,449.437653 643.410400,446.124969 645.830627,441.672577 
	C648.169739,437.369324 649.167542,432.704468 650.300537,427.544861 
	C656.085693,429.743622 660.817993,433.079010 665.179871,436.818726 
	C683.550781,452.569336 694.287476,472.154877 696.515320,496.638733 
	C700.485718,540.272949 668.169800,583.582520 619.269592,589.131042 
	C616.301025,589.467896 613.277222,589.381897 610.278992,589.383423 
	C576.779846,589.400269 543.280701,589.399658 509.781525,589.383911 
	C508.176361,589.383179 506.491394,589.689331 505.039246,588.844360 
	C504.694885,587.000305 506.017120,586.284607 506.890411,585.375183 
	C514.161865,577.803101 521.558716,570.348328 528.697998,562.654297 
	C531.190002,559.968750 533.867371,558.939758 537.468750,558.952576 
	C561.301086,559.037415 585.134277,558.886353 608.966614,558.969849 
	C628.348816,559.037720 643.741394,551.268799 655.641846,535.640503 
z"/>
<path fill="#000000" opacity="1.000000" stroke="none" 
	d="
M433.000000,448.253662 
	C422.531464,448.613708 412.552368,447.668060 402.582611,449.171600 
	C380.890350,452.443054 362.513794,469.293854 357.704376,490.731323 
	C352.609131,513.442871 361.408295,535.473022 380.799225,547.949707 
	C384.342804,550.229736 385.899231,552.412537 384.598633,556.876831 
	C382.743164,563.245789 381.713287,569.856628 380.366272,576.371460 
	C380.027924,578.007751 379.768311,579.648376 378.277008,581.089355 
	C374.153137,580.621521 370.697327,578.185730 367.176086,576.140320 
	C318.130951,547.649902 311.443695,477.206726 354.127716,439.835144 
	C370.998047,425.064514 390.451050,417.518250 412.963013,417.618378 
	C441.115509,417.743622 469.269379,417.560669 497.422638,417.562317 
	C499.191254,417.562439 501.070831,417.073578 502.765106,418.114655 
	C503.175354,419.785248 501.897034,420.558990 501.015167,421.457794 
	C493.315125,429.305389 485.508270,437.049988 477.907013,444.991608 
	C475.496216,447.510376 472.871948,448.353973 469.482269,448.313934 
	C457.489624,448.172363 445.494293,448.255432 433.000000,448.253662 
z"/>
<path fill="#000000" opacity="1.000000" stroke="none" 
	d="
M432.788452,558.080078 
	C438.541351,551.806702 444.012329,545.757874 449.716492,539.937561 
	C481.306793,507.703979 512.981750,475.553284 544.525085,443.273926 
	C546.894165,440.849609 548.403687,440.916595 550.617676,443.167755 
	C554.353333,446.966278 558.118408,450.763855 562.159790,454.224762 
	C565.268066,456.886505 564.840515,458.700684 562.143738,461.429718 
	C534.399048,489.506409 506.758270,517.685791 479.110107,545.857727 
	C470.711151,554.415833 462.427155,563.086914 453.998077,571.614929 
	C448.927246,576.745239 442.543427,577.647095 437.221588,574.246765 
	C431.960419,570.885254 430.396118,565.508423 432.788452,558.080078 
z"/>
<path fill="#000000" opacity="1.000000" stroke="none" 
	d="
M637.876221,419.538025 
	C641.127930,431.736572 634.635498,439.538879 626.811218,446.810120 
	C624.284546,449.158142 622.936340,446.881104 621.470398,445.483032 
	C606.184814,430.904846 590.938538,416.285431 575.667053,401.692413 
	C569.534424,395.832275 563.478821,389.883698 557.165588,384.223694 
	C554.140076,381.511230 554.450806,379.603973 557.162720,376.928650 
	C561.195251,372.950470 564.841248,368.573792 570.586487,366.934906 
	C579.214783,364.473541 586.742188,366.641815 593.135986,372.660065 
	C605.973206,384.743225 618.706421,396.937134 631.440369,409.129456 
	C634.358215,411.923218 636.590881,415.217407 637.876221,419.538025 
z"/>
<path fill="#000000" opacity="1.000000" stroke="none" 
	d="
M612.968445,460.889221 
	C606.281067,467.681824 606.300659,467.661499 599.587341,461.198273 
	C579.565491,441.922211 559.587952,422.599152 539.428406,403.468018 
	C536.421387,400.614380 536.171448,398.898376 539.203064,395.959839 
	C547.613770,387.807281 545.232666,387.963348 553.531067,395.835144 
	C573.452637,414.732727 593.206543,433.807404 613.174561,452.655457 
	C616.377014,455.678192 616.722290,457.946442 612.968445,460.889221 
z"/>
</svg>